<svg width="10" height="6" viewBox="0 0 10 6" fill="none" xmlns="http://www.w3.org/2000/svg">
<path d="M4.99958 4.1635L8.56042 0.602461C8.67583 0.487183 8.80354 0.428155 8.94354 0.425378C9.0834 0.422739 9.21375 0.481767 9.33458 0.602461C9.45528 0.723294 9.51562 0.852322 9.51562 0.989544C9.51562 1.12677 9.45292 1.25809 9.3275 1.3835L5.46437 5.24684C5.39465 5.31086 5.32139 5.35892 5.24458 5.391C5.16778 5.42309 5.08472 5.43913 4.99542 5.43913C4.90611 5.43913 4.82305 5.42309 4.74625 5.391C4.66944 5.35892 4.59896 5.31086 4.53479 5.24684L0.671666 1.3835C0.551666 1.2635 0.49375 1.13697 0.497916 1.00392C0.502222 0.871002 0.564722 0.744128 0.685416 0.623294C0.80625 0.5026 0.935277 0.442253 1.0725 0.442253C1.20972 0.442253 1.33875 0.5026 1.45958 0.623294L4.99958 4.1635Z" fill="#495053"/>
</svg>
