<svg width="16" height="14" viewBox="0 0 16 14" fill="none" xmlns="http://www.w3.org/2000/svg">
<path d="M12.4191 13.5033C11.6734 13.5033 11.0431 13.2459 10.5281 12.731C10.0132 12.216 9.75581 11.5857 9.75581 10.84C9.75581 10.0942 10.0132 9.46381 10.5281 8.94895C11.0431 8.43395 11.6734 8.17645 12.4191 8.17645C13.165 8.17645 13.7953 8.43395 14.3102 8.94895C14.8252 9.46381 15.0827 10.0942 15.0827 10.84C15.0827 11.5857 14.8252 12.216 14.3102 12.731C13.7953 13.2459 13.165 13.5033 12.4191 13.5033ZM12.421 12.42C12.8578 12.42 13.2301 12.2656 13.5379 11.9569C13.8455 11.648 13.9993 11.2751 13.9993 10.8381C13.9993 10.4013 13.8449 10.029 13.536 9.72124C13.2273 9.4136 12.8544 9.25978 12.4175 9.25978C11.9805 9.25978 11.6082 9.41422 11.3006 9.72311C10.993 10.0319 10.8391 10.4047 10.8391 10.8417C10.8391 11.2786 10.9935 11.6509 11.3023 11.9585C11.6112 12.2662 11.9841 12.42 12.421 12.42ZM7.55393 11.3817H2.45768C2.30421 11.3817 2.1756 11.3301 2.07185 11.2271C1.96796 11.124 1.91602 10.9963 1.91602 10.8439C1.91602 10.6917 1.96796 10.5627 2.07185 10.4569C2.1756 10.3512 2.30421 10.2983 2.45768 10.2983H7.55393C7.7074 10.2983 7.83602 10.3498 7.93977 10.4529C8.04365 10.5558 8.0956 10.6835 8.0956 10.8358C8.0956 10.9882 8.04365 11.1172 7.93977 11.2229C7.83602 11.3287 7.7074 11.3817 7.55393 11.3817ZM3.57956 5.82395C2.83372 5.82395 2.20338 5.56645 1.68852 5.05145C1.17352 4.53659 0.916016 3.90624 0.916016 3.1604C0.916016 2.41471 1.17352 1.78436 1.68852 1.26936C2.20338 0.754501 2.83372 0.49707 3.57956 0.49707C4.32525 0.49707 4.9556 0.754501 5.4706 1.26936C5.98546 1.78436 6.24289 2.41471 6.24289 3.1604C6.24289 3.90624 5.98546 4.53659 5.4706 5.05145C4.9556 5.56645 4.32525 5.82395 3.57956 5.82395ZM3.58122 4.74061C4.01817 4.74061 4.39046 4.58617 4.6981 4.27728C5.00574 3.96853 5.15956 3.59568 5.15956 3.15874C5.15956 2.72179 5.00518 2.3495 4.69643 2.04186C4.38754 1.73422 4.01463 1.5804 3.57768 1.5804C3.14088 1.5804 2.76858 1.73478 2.46081 2.04353C2.15317 2.35242 1.99935 2.72534 1.99935 3.16228C1.99935 3.59909 2.15379 3.97138 2.46268 4.27915C2.77143 4.58679 3.14428 4.74061 3.58122 4.74061ZM13.541 3.70207H8.44477C8.29129 3.70207 8.16268 3.65054 8.05893 3.54749C7.95504 3.44457 7.9031 3.31693 7.9031 3.16457C7.9031 3.01221 7.95504 2.88318 8.05893 2.77749C8.16268 2.67165 8.29129 2.61874 8.44477 2.61874H13.541C13.6945 2.61874 13.8231 2.67027 13.9268 2.77332C14.0307 2.87638 14.0827 3.00408 14.0827 3.15645C14.0827 3.30867 14.0307 3.4377 13.9268 3.54353C13.8231 3.64922 13.6945 3.70207 13.541 3.70207Z" fill="#495053"/>
</svg>
